# xmcd
#
# Track frame offsets: 
#        150
#        18977
#        37891
#        71660
#        94605
#        119441
#        146032
#        161680
#        176142
#        189112
#        197744
#        246816
#        264646
#
# Disc length: 3811 seconds
#
# Revision: 1
# Processed by: cddbd v1.5.2PL0 Copyright (c) Steve Scherf et al.
# Submitted via: ExactAudioCopyFreeDBPlugin 1.0
#
DISCID=b20ee10d
DTITLE=Marantz - High-end Audiophile test demo
DYEAR=2011
DGENRE=Acoustic
TTITLE0=Charly Horn - The Men You Were
TTITLE1=Miller Dominic - London Paris Carddiff
TTITLE2=Joe Beard, Ronnie Earl and The Broad Casters - Sinner Prayer
TTITLE3=Eva Cassidy - Fields Of Gold
TTITLE4=Boz Scaggs and David Paich - Desire
TTITLE5=Fourplay - Heads Up
TTITLE6=Guitar Trio - Guitar Compasion
TTITLE7=Radka Toneff - The Moon Is A Harsh Mistress
TTITLE8=Signe Tollefsen - Sweet Tears
TTITLE9=Film Music - Aseninatos
TTITLE10=Earth and Firm - Temptation
TTITLE11=Judith Jamin - Women Of Ireland
TTITLE12=Orchestra Musica Antiqua - Sorprano: Sophie von Otter - Marie
TTITLE12=ngesange Handel
EXTD=
EXTT0=
EXTT1=
EXTT2=
EXTT3=
EXTT4=
EXTT5=
EXTT6=
EXTT7=
EXTT8=
EXTT9=
EXTT10=
EXTT11=
EXTT12=
PLAYORDER=
